# File created by Blade
# Date/Time:  Tue Jan 27 18:01:49 2015
# Frame Rate: 120.000 fps
#------------------------------------------------------
:FULLY-SPECIFIED
:DEGREES
3316
root -1.865840 31.919152 -6.247885 6.541721 6.148773 2.973411
Spine -5.712544 -7.592554 -0.080848
Head 4.743097 3.778280 -0.153172
LeftShoulder -18.643474 16.485283 25.977625
LeftArm 16.991177 -20.985919 -25.466104
LeftForeArm 3.881844 -0.000000 -0.446683
LeftHand -12.827179 -0.000000 -11.578920
LeftHandThumb1 -26.253704 0.000000 33.147579
RightShoulder -14.694960 6.213262 -36.830884
RightArm 16.395692 19.407065 33.482222
RightForeArm -29.151683 0.000000 5.762241
RightHand -14.739764 0.000000 18.616042
RightHandThumb1 -24.326973 -0.000000 -32.862282
LeftUpLeg -1.622393 -0.442673 0.039193
LeftLeg 0.841690 -0.000000 -0.000000
LeftFoot -17.888706 16.828253 -26.219706
LeftToeBase 8.883149 -0.000000 -0.000000
RightUpLeg 1.483267 -3.740746 -2.641554
RightLeg -4.800816 -0.000000 0.000000
RightFoot -13.739089 -13.367938 9.293804
RightToeBase 4.766175 -0.000000 -0.000000
3317
root -1.875470 31.918698 -6.247403 6.544146 6.163516 2.960914
Spine -5.727617 -7.592665 -0.098921
Head 4.713550 3.636868 -0.144418
LeftShoulder -18.632058 16.441627 25.971547
LeftArm 16.922552 -20.961172 -25.428897
LeftForeArm 3.827830 0.000000 -0.414022
LeftHand -12.864584 -0.000000 -11.491962
LeftHandThumb1 -26.253704 0.000000 33.147579
RightShoulder -14.671406 6.190162 -36.848924
RightArm 16.408036 19.540376 33.495349
RightForeArm -29.120804 -0.000000 5.830601
RightHand -14.725440 -0.000000 18.699481
RightHandThumb1 -24.326973 -0.000000 -32.862282
LeftUpLeg -1.630298 -0.427544 0.070651
LeftLeg 0.846107 -0.000000 -0.000000
LeftFoot -17.871797 16.796823 -26.209733
LeftToeBase 8.869470 -0.000000 -0.000000
RightUpLeg 1.479420 -3.722819 -2.609280
RightLeg -4.798839 -0.000000 0.000000
RightFoot -13.747544 -13.391986 9.306081
RightToeBase 4.740560 -0.000000 -0.000000
3318
root -1.885144 31.918178 -6.246316 6.534090 6.185711 2.947816
Spine -5.732890 -7.598735 -0.121692
Head 4.695597 3.506572 -0.126879
LeftShoulder -18.615462 16.389592 25.975920
LeftArm 16.858655 -20.899477 -25.384797
LeftForeArm 3.760252 -0.000000 -0.397422
LeftHand -12.815620 -0.000000 -11.521871
LeftHandThumb1 -26.253704 0.000000 33.147579
RightShoulder -14.652864 6.209506 -36.877217
RightArm 16.436869 19.696354 33.539793
RightForeArm -29.071240 -0.000000 5.830200
RightHand -14.640692 -0.000000 18.617542
RightHandThumb1 -24.326973 -0.000000 -32.862282
LeftUpLeg -1.627304 -0.418576 0.102202
LeftLeg 0.854015 -0.000000 -0.000000
LeftFoot -17.871175 16.768124 -26.216302
LeftToeBase 8.899554 -0.000000 -0.000000
RightUpLeg 1.495182 -3.738336 -2.577476
RightLeg -4.805721 -0.000000 0.000000
RightFoot -13.744561 -13.407639 9.279079
RightToeBase 4.797649 -0.000000 -0.000000
3319
root -1.895184 31.918160 -6.246190 6.534772 6.200674 2.938995
Spine -5.744755 -7.586182 -0.152907
Head 4.672489 3.379471 -0.099906
LeftShoulder -18.628873 16.391756 25.965557
LeftArm 16.903180 -20.988190 -25.410349
LeftForeArm 3.816407 -0.000000 -0.423849
LeftHand -12.748293 -0.000000 -11.478489
LeftHandThumb1 -26.253704 0.000000 33.147579
RightShoulder -14.661703 6.228275 -36.895951
RightArm 16.462602 19.762167 33.561778
RightForeArm -29.116518 -0.000000 5.856167
RightHand -14.674946 0.000000 18.547793
RightHandThumb1 -24.326973 -0.000000 -32.862282
LeftUpLeg -1.630218 -0.420593 0.132371
LeftLeg 0.848167 -0.000000 -0.000000
LeftFoot -17.860157 16.746513 -26.231354
LeftToeBase 8.913157 -0.000000 -0.000000
RightUpLeg 1.498719 -3.736085 -2.550567
RightLeg -4.816088 -0.000000 0.000000
RightFoot -13.732600 -13.417904 9.259133
RightToeBase 4.786887 -0.000000 -0.000000
